<svg xmlns="http://www.w3.org/2000/svg" xmlns:xlink="http://www.w3.org/1999/xlink" xmlns:fi="http://pattern.flaticon.com/" x="0" y="0" width="1440" height="768" viewBox="0 0 5040 2688"><rect x="0px" y="0px" width="100%" height="100%" opacity="0" fill="#f5ebeb"/><defs><g transform="matrix(0.12877709619523348 0.03338665509405017 -0.03338665509405017 0.12877709619523348 -3.299505336709821 318.68642210854176)" id="L1_1"><path d="M268,176.8c-0.4-6.8-3.2-13.2-8.8-18L122,46.4c-2.4-10.8-8-20.8-16-28.8C94.8,6.4,79.6,0,63.2,0C47.2,0,32,6.4,20.4,17.6     C9.2,28.8,2.8,44,2.8,60.4c0,16,6.4,31.2,17.6,42.8c8,8,18,13.6,28.8,16L162,256c4.8,5.6,11.6,8.8,18.8,8.8     c6.8,0,12.8-2.8,17.6-7.6l62-62C265.6,190.4,268,184,268,176.8z M28,95.6c-9.6-9.6-14.8-22-14.8-35.2s5.2-26,14.8-35.2     c9.6-9.6,22-14.8,35.2-14.8s26,5.2,35.2,14.8c6.4,6.4,10.8,14,12.8,22.8l-60.4,60.8C42.4,106.4,34.4,102,28,95.6z M128,198.4     l15.6-15.6l-7.2-7.2l-15.2,15.2L110,176.4l13.6-13.6l-7.2-7.2l-12.8,12.8l-11.2-13.6l12-12l-7.2-7.2L86,146.8l-26.4-32L118,56.4     l32,26.4l-10.4,10.4l7.2,7.2L158,89.2l13.6,11.2l-12.8,12.8l7.2,7.2l13.6-13.6l14,11.6l-14.4,14.4l7.2,7.2l15.2-15.2l29.6,24     L152.4,228L128,198.4z M253.2,188.4l-62,61.6c-2.8,2.8-6.4,4.4-10.4,4.4c-4.4,0-8.4-2-11.2-5.2L158.8,236l80-80l13.2,10.8     c3.2,2.8,5.2,6.4,5.2,10.4C257.6,181.2,256,185.2,253.2,188.4z"/><circle cx="256" cy="283" r="10"/><circle cx="286" cy="262" r="9"/><path d="M268.4,211.6c-4.4,0-8,3.6-8,8c0,4.4,3.6,8,8,8c4.4,0,8-3.6,8-8C276.4,215.2,273.2,211.6,268.4,211.6z"/><path d="M246.4,243.6c0,3.2,2.4,5.6,5.6,5.6s5.6-2.4,5.6-5.6c0-2.8-2.4-5.6-5.6-5.6S246.4,240.4,246.4,243.6z"/><path d="M291.2,288.4c-2.8,0-5.6,2.4-5.6,5.6s2.4,5.6,5.6,5.6s5.6-2.4,5.6-5.6C296.8,290.8,294.4,288.4,291.2,288.4z"/><path d="M223.2,253.2c-4,0-7.2,3.2-7.2,7.2s3.2,7.2,7.2,7.2s7.2-3.2,7.2-7.2S227.2,253.2,223.2,253.2z"/></g><g transform="matrix(0.1457068525126636 0.02999846861344117 -0.02999846861344117 0.1457068525126636 -2.200578746113134 266.8999266114513)" id="L1_2"><path d="M314,193.6L276.4,156c-10-10-22.8-14.8-36-14.8c-4.4,0-9.2,0.8-13.6,2c-0.4-6.8-3.2-14-8.4-19.2l-18.8-18.8     c-3.2-3.2-8.8-3.2-12,0l-6,6l-57.6-58c4-5.6,6.4-12,6.4-18.8c0-8.8-3.2-17.6-10-24.4C113.6,3.2,104.8,0,96,0     c-8.4,0-17.2,3.2-24,9.6L71.6,10L10,71.6C3.2,78.4,0,87.2,0,96c0,8.8,3.2,17.6,10,24.4c6.8,6.8,15.6,10,24.4,10     c6.8,0,13.2-2.8,18.8-6.4l58,57.6l-6.4,6.4c-3.2,3.2-3.2,8.8,0,12l18.8,18.8c5.2,5.2,12.4,8,19.2,8.4c-1.2,4.4-2,8.8-2,13.6     c0,13.2,4.8,26,14.8,36l37.6,37.6c3.2,3.2,8.8,3.2,12,0L314,205.6C317.2,202.4,317.2,196.8,314,193.6z M46.8,108l-0.4,0.4     c-3.2,3.2-7.6,4.8-12,4.8c-4.4,0-8.8-1.6-12.4-5.2c-3.2-3.2-4.8-7.6-4.8-12c0-4.4,1.6-8.8,5.2-12.4L84,22l0.4-0.4     c3.2-3.2,7.6-4.8,12-4.8c4.4,0,8.8,1.6,12.4,5.2c3.2,3.2,5.2,8,5.2,12.4s-1.6,8.8-5.2,12.4L46.8,108z M66.4,112.8l23.2-23.2     l23.2-23.2l56.8,56.8l-46.4,46.4L66.4,112.8z M153.6,206.4c-2.4,2.4-5.6,3.6-8.8,3.6s-6.4-1.2-8.8-3.6l-12.8-12.8l6.4-6.4     l58.4-58.4l6.4-6.4l12,13.2c2.4,2.4,3.6,5.6,3.6,8.8s-1.2,6.4-3.6,8.8l-2,2l-48.8,49.2L153.6,206.4z M198.8,295.6l-31.2-31.2     c-6.4-6.4-10-15.2-10-24s3.2-17.2,10-24l49.2-49.2c6.4-6.4,15.2-10,24-10c8.4,0.4,17.2,3.6,23.6,10.4l31.2,31.2L198.8,295.6z"/><circle cx="314" cy="244" r="10"/><circle cx="279" cy="279" r="10"/><circle cx="244" cy="314" r="10"/><circle cx="320" cy="320" r="10"/><circle cx="318" cy="282" r="10"/><circle cx="282" cy="318" r="10"/></g><g transform="matrix(0.18708288118524857 0.07164876107502358 -0.07164876107502358 0.18708288118524857 115.8767243253006 304.3789401324636)" id="L1_5"><path d="M157.2,27.001c-86.4,0-157.2,68-157.2,152c0,54,10,80.4,11.2,83.6s9.2,24.4,40,24.4h211.6c30.8,0,38.8-21.2,40-24.4     c1.2-3.2,11.2-29.2,11.2-83.6C314.4,95.001,243.6,27.001,157.2,27.001z M157.2,37.401c67.2,0,124,43.6,141.2,103.2H16     C33.2,81.001,90,37.401,157.2,37.401z M13.6,151.001h287.6c2,8.8,2.8,18,2.8,27.2h-26.4l-32.4,32l-30-32H10.4     C10.8,169.001,11.6,159.801,13.6,151.001z M10.8,188.601h199.6l26,27.6h-224C11.6,208.201,10.8,199.001,10.8,188.601z      M293.2,258.201l-0.4,0.8c0,0-5.2,17.2-30,17.2H51.2c-24.4,0-29.6-16.4-30-17.2v-0.8c0,0-4.4-10.4-7.6-32h286.8     C297.6,247.801,293.2,258.201,293.2,258.201z M302,216.201h-48.4l28-27.6h22C303.6,199.001,302.8,208.201,302,216.201z"/><path d="M91.6,73.401c-4,0-6.8,3.2-6.8,6.8c0,4,3.2,7.2,6.8,7.2c4,0,6.8-3.2,6.8-7.2C98.4,76.601,95.2,73.401,91.6,73.401z"/><path d="M105.2,104.201c-4,0-6.8,3.2-6.8,7.2s3.2,6.8,6.8,6.8c4,0,6.8-3.2,6.8-6.8C112.4,107.401,109.2,104.201,105.2,104.201z"/><circle cx="71" cy="104" r="6"/></g><g transform="matrix(0.12096773833036423 0 0 0.12096773833036423 272 45)" id="L1_6"><path d="M368,228c-12.264,0-24.504,1.912-36.488,5.512l-0.72-1.328c-3.776-6.952-8.032-13.624-12.696-20    c4.032,1.2,8.08,2.312,12.08,3.648l11.28,3.76c3.64,1.2,7.44-0.408,9.336-3.704c1.896-3.28,1.104-7.56-1.744-10.088    c-37.144-33.024-82.72-54.64-132.024-62.544l-4.44-0.584C204.608,134.248,200,123.048,200,111.16    c0-26.832,7.04-53.344,20.36-76.656L237.784,4H187.72l-6,9C162.272,42.168,152,76.104,152,111.16    c0,11.904-4.616,23.112-12.624,31.544c-50.856,7.216-97.992,28.912-136.64,63.28c-2.864,2.504-3.568,6.696-1.68,10    c1.896,3.312,5.864,4.808,9.48,3.616l11.28-3.768c4.088-1.36,8.224-2.504,12.344-3.72C12.104,242.112,0,278.136,0,316    c0,97.048,78.952,176,176,176c23.208,0,45.776-4.448,67.504-13.424l3.184-1.552C259.672,481.472,273.528,484,288,484    c13.464,0,26.904-2.192,40-6.52c13.096,4.328,26.536,6.52,40,6.52c70.576,0,128-57.424,128-128S438.576,228,368,228z M168,111.16    c0-31.88,9.344-62.76,27.032-89.28L196.28,20h13.936l-3.752,6.56C191.768,52.28,184,81.536,184,111.16    c0,14.928,5.336,29.088,14.76,40.136L176,155.84l-22.76-4.552C162.664,140.24,168,126.088,168,111.16z M123.768,161.712    L176,172.16l52.296-10.456c26.224,5.736,51.216,15.68,74.12,29.528C271.536,183.768,239.904,180,208,180    c-3.712,0-6.936,2.552-7.792,6.168c-0.856,3.616,0.888,7.336,4.208,8.992l20.48,10.232c12.568,6.288,23.184,15.512,31.392,26.752    c-1.872,0.48-3.776,0.888-5.616,1.448c-22.056-16.008-46.272-28.56-72.136-37.176c-1.64-0.544-3.424-0.544-5.064,0    c-31.096,10.36-59.616,26.128-84.856,46.888c8.44-16.168,21.832-29.576,38.496-37.912l20.48-10.232    c3.32-1.656,5.064-5.384,4.208-8.992c-0.856-3.608-4.088-6.168-7.8-6.168c-31.96,0-63.632,3.784-94.56,11.264    C72.36,177.376,97.424,167.448,123.768,161.712z M311.056,230.232C303.416,228.808,295.712,228,288,228    c-4.936,0-9.784,0.344-14.576,0.896c-7.8-12.48-17.968-23.168-30.128-31.28c16.176,1.48,32.208,4.08,48.064,7.584    C298.752,212.888,305.352,221.272,311.056,230.232z M176,476c-88.224,0-160-71.776-160-160c0-41.6,15.888-80.872,44.672-110.816    c15.848-3.504,31.88-6.096,48.048-7.576c-23.552,15.776-39.904,40.808-44.616,69.08c-0.552,3.32,1.032,6.624,3.96,8.28    C69.296,275.664,70.648,276,72,276c1.864,0,3.72-0.656,5.2-1.92L94.792,259c24.016-20.592,51.328-36.248,81.2-46.552    c20.104,6.936,39.08,16.512,56.76,28.264C189.8,261.384,160,305.224,160,356c0,48.088,26.68,90.016,65.992,111.888    C209.92,473.184,193.176,476,176,476z M368,468c-12.552,0-25.12-2.192-37.328-6.512L328,460.536l-2.672,0.944    C313.12,465.808,300.552,468,288,468c-61.76,0-112-50.24-112-112s50.24-112,112-112c12.552,0,25.12,2.192,37.328,6.512    l2.672,0.952l2.672-0.944C342.88,246.192,355.448,244,368,244c61.76,0,112,50.24,112,112S429.76,468,368,468z"/><path d="M314.216,263.816C305.456,261.28,296.632,260,288,260c-52.936,0-96,43.064-96,96c0,52.936,43.064,96,96,96    c8.632,0,17.456-1.28,26.216-3.816l5.784-1.672V265.488L314.216,263.816z M304,434.264c-5.392,1.16-10.752,1.736-16,1.736    c-44.112,0-80-35.888-80-80s35.888-80,80-80c5.248,0,10.608,0.576,16,1.736V434.264z"/><path d="M368,260c-8.632,0-17.456,1.28-26.216,3.816L336,265.488V396h16V277.736c5.392-1.16,10.752-1.736,16-1.736    c44.112,0,80,35.888,80,80s-35.888,80-80,80c-5.248,0-10.608-0.576-16-1.736V412h-16v34.512l5.784,1.672    C350.544,450.72,359.368,452,368,452c52.936,0,96-43.064,96-96C464,303.064,420.936,260,368,260z"/><rect x="368px" y="300px" width="16px" height="16px"/><rect x="406px" y="312px" width="11px" height="16px" transform="matrix(0.7071 -0.7071 0.7071 0.7071 -105.6145 385.0529)"/><rect x="395px" y="386px" width="16px" height="11px" transform="matrix(0.7071 -0.7071 0.7071 0.7071 -158.8753 400.4875)"/><rect x="368px" y="396px" width="16px" height="16px"/><rect x="408px" y="348px" width="16px" height="16px"/><rect x="272px" y="300px" width="16px" height="16px"/><rect x="235px" y="314px" width="16px" height="11px" transform="matrix(0.7071 -0.7071 0.7071 0.7071 -154.8122 266.2502)"/><rect x="246px" y="383px" width="11px" height="16px" transform="matrix(0.7071 -0.7071 0.7071 0.7071 -203.3773 293.0006)"/><rect x="272px" y="396px" width="16px" height="16px"/><rect x="232px" y="348px" width="16px" height="16px"/></g><g transform="matrix(0.10384145303531347 0.05340417717486662 -0.05340417717486662 0.10384145303531347 214.62821082184928 162.48589355102754)" id="L1_7"><path d="M474.86,216.072l-23.904-103.576l-87.872,16.472c-2.88-8.664-6.264-17.208-10.336-25.352    c-14.144-28.28-35.312-52.824-61.216-70.952L244.884,0l-46.648,32.656c-25.904,18.136-47.08,42.672-61.216,70.952    c-4.08,8.168-7.408,16.704-10.272,25.368l-87.928-16.48L14.908,216.072c-1.344,5.832-2.024,11.816-2.024,17.8v42.856    c0,25.8,12.616,50.04,33.76,64.832l31.28,21.896c13.376,9.368,29.072,14.312,45.392,14.312h14.024    c6.792,0,13.512,1.096,19.968,3.232l34.472,11.496c8.624,31.488,13.104,64.152,13.104,97.272h16    c0-36.52-5.192-72.504-15.224-107.072l2.84-14.232c0.768-3.824,1.992-7.488,3.416-11.056l24.968,16.64v115.72h16V374.2    l25.376-15.864c1.248,3.28,2.304,6.64,3.008,10.128l2.84,14.232c-10.032,34.568-15.224,70.552-15.224,107.072h16    c0-33.12,4.48-65.784,13.104-97.272l34.464-11.488c6.464-2.144,13.192-3.24,19.976-3.24h14.024    c16.32,0,32.016-4.944,45.392-14.304l31.28-21.896c21.144-14.8,33.76-39.04,33.76-64.832V233.88    C476.884,227.888,476.204,221.904,474.86,216.072z M236.884,354.816l-17.248-11.496c1.856-2.512,3.904-4.896,6.136-7.128    c4.24-4.24,7.944-8.984,11.112-14.064V354.816z M236.884,252.712c0,2.96-0.208,5.968-0.64,8.928l-3.928,27.52    c-1.912,13.432-8.248,26.112-17.848,35.712c-8.248,8.248-14.48,18.104-18.408,28.936c-6.504-17.12-14.24-33.808-23.176-49.944    v-6.096c0-15.256,3.048-30.104,9.056-44.128l-14.704-6.296c-4.464,10.416-7.344,21.256-8.92,32.344    c-0.008-0.016-0.016-0.024-0.024-0.04L132.884,240.8v-10.184c0-17.28,5.072-34.024,14.656-48.408l-13.312-8.872    c-8.928,13.392-14.488,28.52-16.472,44.328L83.58,165.4l-13.392,8.752l54.248,82.96c-19.632-10.024-41.296-15.344-63.552-15.344    v16c24.584,0,48.392,7.208,68.84,20.84l14.72,9.816l0.24-0.352l0.216,0.328c5.752,8.8,11.064,17.832,16.016,27.024    c-20.784-11.56-44.072-17.656-68.032-17.656v16c24.584,0,48.392,7.208,68.84,20.84l12.592,8.4    c4.392,10.08,8.344,20.336,11.808,30.744l-23.768-7.928c-8.088-2.688-16.512-4.056-25.016-4.056h-14.024    c-13.024,0-25.544-3.944-36.216-11.416l-31.28-21.896c-16.864-11.808-26.936-31.144-26.936-51.728v-42.856    c0-4.776,0.544-9.552,1.616-14.2l20.456-88.624l106.176,19.904c8.416,1.584,16.28,4.792,23.392,9.528l28.24,18.832    c17.616,11.736,28.12,31.376,28.12,52.536V252.712z M252.884,355.328v-33.2c3.16,5.072,6.864,9.816,11.112,14.064    c2.488,2.488,4.68,5.192,6.696,8.016L252.884,355.328z M460.884,276.728c0,20.584-10.072,39.92-26.928,51.728l-31.28,21.896    c-10.672,7.472-23.2,11.416-36.224,11.416h-14.024c-8.504,0-16.928,1.368-25.032,4.064l-23.76,7.92    c3.464-10.416,7.416-20.664,11.808-30.744l12.592-8.4c20.456-13.632,44.264-20.84,68.848-20.84v-16    c-23.96,0-47.248,6.096-68.032,17.656c4.952-9.192,10.256-18.224,16.016-27.024l0.216-0.328l0.24,0.352l14.72-9.816    c20.448-13.632,44.256-20.84,68.84-20.84v-16c-22.256,0-43.92,5.32-63.552,15.336l54.248-82.96l-13.392-8.752l-34.176,52.264    c-1.992-15.8-7.552-30.928-16.472-44.328l-13.312,8.872c9.584,14.392,14.656,31.128,14.656,48.408v10.184l-25.392,38.824    c-3.064-21.16-11.352-41.512-24.216-58.648l-12.792,9.6c14.448,19.264,22.4,43.136,22.4,67.2v6.096    c-8.936,16.136-16.672,32.824-23.168,49.952c-3.928-10.832-10.168-20.696-18.408-28.936c-9.6-9.6-15.936-22.28-17.848-35.72    l-3.928-27.512c-0.432-2.96-0.64-5.968-0.64-8.928v-20.872c0-21.16,10.504-40.8,28.12-52.536l28.24-18.832l-8.872-13.312    L272.14,166c-2.632,1.752-5.12,3.672-7.488,5.688c6.76-17.192,18.12-32.328,33.048-43.52l-9.616-12.8    c-15.2,11.4-27.176,26.344-35.2,43.304V89.768h-16v39.544c-9.496-12.864-21.896-23.44-36.424-30.704l-7.16,14.312    c18.872,9.44,33.592,25.432,41.44,45.032l2.144,5.36v20.984c-5.296-7.024-11.704-13.272-19.24-18.296l-28.24-18.832    c-8.904-5.936-18.768-9.952-29.312-11.936l-17.472-3.272c2.496-7.224,5.296-14.352,8.712-21.184    c12.952-25.904,32.344-48.384,56.08-65l37.472-26.24l37.48,26.232c23.736,16.616,43.128,39.096,56.08,65    c3.408,6.816,6.248,13.952,8.744,21.176l-17.504,3.28c-4.824,0.904-9.576,2.264-14.152,4.048l5.816,14.904    c3.648-1.424,7.448-2.504,11.288-3.232l106.176-19.904l20.456,88.624c1.072,4.648,1.616,9.432,1.616,14.208V276.728z"/><path d="M182.476,220.968c-3.152,4.224-6.056,8.632-8.624,13.112l13.888,7.952c2.24-3.92,4.784-7.784,7.544-11.472    L182.476,220.968z"/></g><path d="M35.732,21.064c-0.188-3.25-3.062-5.688-4.062-6.688s-5.5-1.75-7.75-2.812s-1.062-5.75-0.5-7.812   c0.562-2.062,0.312-3.25-0.25-3.562c-0.562-0.312-2.125-0.188-2.625,0S19.67,2.065,19.67,2.065s-0.375,0.125-1-0.25   s-0.938,0.374-1.438,0.874s-1.375-0.875-2.125-1.625s-1.938-0.312-2.375,0.125S12.17,2.314,11.67,2.877s0.875,2,1.562,3.125   s0.312,2.812-0.062,4.5s-1.625,1.75-2.438,1.938s-2.398,0.812-3.625,1.125c-2.688,0.688-4.75,3.312-6.188,6.938   c-1.438,3.625,0.375,8.688,2.938,10c2.563,1.312,7.312,2,7.312,2c-2.062,2.188-0.562,3.625,0.562,3.688s1.188-0.875,2.25-1.125   s1.25,0.75,1.812,0.875s0.688-0.75,1.188-1.062c0.5-0.312,1.375,0.5,1.875,0.5s0.625-0.375,1.062-0.812   c0.437-0.437,0.625-0.062,0.75,0.375s0.625,0.875,2.062,0.938c1.438,0.062,1.188-1.562,1.188-1.75c0-0.188,1.062-0.312,1.625-0.312   c0.562,0,0.875-0.25,0.75-0.438c-0.125-0.188,0.188-1.875,0.188-1.875C36.107,31.252,35.919,24.314,35.732,21.064z M24.794,32.752   c-0.438,0.375-0.938,0.438-1.5,0.75c-0.562,0.312-0.375,1.062-0.875,1.188s-0.875-0.562-1.5-1.438   c-0.625-0.875-1.562,0.75-2.062,0.938s-0.938-0.375-1.562-0.562c-0.624-0.188-0.688,0.312-1.5,0.812s-0.688-0.438-1.562-0.812   c-0.874-0.375-0.938,0.688-2.125,1.312s-0.812-0.188-0.812-0.938s1.25-1.375,1.625-1.562c0,0,0.562,0.062,1.062,0   s0.125-0.438,0.312-0.75s0.812,0.125,1.375,0.375s0.438,0,1.438-0.188c1-0.188,1.812,0.25,4,0.375   c2.188,0.125,2.375-0.688,3.312-0.75C25.357,31.44,25.232,32.377,24.794,32.752z M31.732,27.752   c-2.688,1.312-3.125,1.438-4.562,1.438c-1.438,0-2.188-0.062-2.188-0.062s2.188-4.062,1.438-7.312s-1.75-5.875-2.438-6.75   c-0.688-0.875-1.438-1.375-2.25-0.875c-0.812,0.5,0.375,1.375,1.312,3.625c0.937,2.25,1.938,5.75,1,8.25   c-0.938,2.5-1.312,4.438-2.062,4.312c-0.75-0.127-1.688-0.438-3.062-0.125c-1.374,0.312-2.875,0.812-3.5,0.5   c-0.625-0.312-3.875-2.812-4.125-5.688s0.125-5.875,0.688-6.812c0.563-0.938,0.75-1.562,0.438-2c-0.312-0.438-1-0.562-1.562,0.125   c-0.562,0.687-1.812,4.188-1.625,7c0.187,2.812,1,4.438,1.562,5.25c0.562,0.812,1.438,1.812,0.938,1.812s-6.5-0.5-8.062-2.688   c-1.562-2.188-1.938-7.125-0.25-9.25c1.688-2.125,5.25-3.75,7.562-4.125c2.312-0.375,3.812-1.688,4.25-3.562   c0.438-1.874,0-4-0.062-4.75c-0.085-1.026-2.125-3.375-1.25-3.25s0.875,1.688,2.312,2c1.437,0.312,1.875-0.938,2.25-0.625   s0.688,1.5,1.25,1c0.562-0.5,1.438-3.125,1.875-3.062c0.437,0.063,0.312,0.688-0.25,2.25c-0.562,1.562-1.625,6.375,0.562,8.125   s6.125,2.5,7.625,3s3.938,3.25,4.062,5C33.732,22.254,34.419,26.439,31.732,27.752z M6.649,17.211   c-0.458,0.25-1.708,1.916-2.208,3.75s-0.125,3.166,0.167,3.209c0.292,0.041,0.375-0.043,0.25-0.918s0.217-2.141,0.75-3.207   c0.5-1,1.292-2.083,1.958-2.458S7.107,16.961,6.649,17.211z M14.232,22.545c0.167-2.668,0.583-3.375,0.833-3.834s0.5-0.875,0-0.917   c-0.332-0.027-1.125,1.292-1.25,2.417s-0.583,2.959-0.167,4.709c0.417,1.75,1.042,2.625,1.375,2.75s0.917,0.041,0.542-0.418   C15.19,26.795,14.065,25.211,14.232,22.545z M29.232,16.836c-0.342-0.158-1.125,0.541-0.292,1.041   c0.833,0.5,2.042,1.375,2.25,3.042c0.208,1.666,0.042,2.541-0.167,2.875c-0.208,0.332-0.208,0.416,0.208,0.541   c0.417,0.125,1.042-1.209,1.042-2.416c0-1.209-0.542-2.668-1.125-3.543C30.565,17.502,29.774,17.086,29.232,16.836z M16.524,5.794   c-0.165,0.047,0.292,1.083,0.292,2.125s-0.708,3.417-0.917,4.083c-0.208,0.667-0.375,1.459,0,1.584s1.25-1.375,1.417-3.375   S17.107,5.627,16.524,5.794z M19.815,6.794c-0.105-0.153-0.667,1.083-0.917,2s-0.5,2.458-0.333,3.542   c0.167,1.083,0.333,2.166,0.625,2.25c0.292,0.083,0.833,0,0.208-2.125S20.19,7.336,19.815,6.794z" transform="matrix(1.1392276251317621 0.1964185514533113 -0.1964185514533113 1.1392276251317621 45.867812480596356 111.79674462827715)" id="L1_8"/><g transform="matrix(0.12096773833036423 0 0 0.12096773833036423 77 201)" id="L1_9"><path d="M180,0h-28C68.184,0,0,68.184,0,152v28c0,45.184,22.104,87.632,59.12,113.544C72.2,302.704,80,317.704,80,333.656V356     c0,77.192,62.808,140,140,140s140-62.808,140-140V180C360,80.752,279.248,0,180,0z M344,356c0,68.376-55.624,124-124,124     S96,424.376,96,356v-22.344c0-21.168-10.352-41.064-27.704-53.216C35.552,257.52,16,219.968,16,180v-28     C16,77.008,77.008,16,152,16h28c90.432,0,164,73.568,164,164V356z"/><path d="M180,32h-28C85.832,32,32,85.824,32,152v28c0,34.752,17.008,67.408,45.48,87.344C99.104,282.48,112,307.28,112,333.656     V356c0,59.552,48.448,108,108,108s108-48.448,108-108v-28h-16v28c0,50.728-41.272,92-92,92c-50.728,0-92-41.272-92-92v-22.344     c0-31.592-15.456-61.28-41.336-79.424C62.456,237.288,48,209.536,48,180v-28C48,94.656,94.656,48,152,48h28     c72.784,0,132,59.216,132,132v132h16V180C328,98.392,261.608,32,180,32z"/><path d="M176,144c0-30.872-25.128-56-56-56s-56,25.128-56,56s25.128,56,56,56S176,174.872,176,144z M120,184     c-22.056,0-40-17.944-40-40c0-22.056,17.944-40,40-40c22.056,0,40,17.944,40,40C160,166.056,142.056,184,120,184z"/><path d="M468.224,0c-10.584,0-20.112,5.88-24.848,15.352C420.232,61.64,408,113.464,408,165.216V272h16v188     c0,19.848,16.152,36,36,36c19.848,0,36-16.152,36-36V272v-8V27.776C496,12.464,483.536,0,468.224,0z M480,460     c0,11.032-8.968,20-20,20c-11.032,0-20-8.968-20-20V304h40V460z M480,288h-40v-16h40V288z M480,256h-56v-90.784     c0-49.288,11.648-98.632,33.688-142.712c2.008-4.016,6.048-6.504,10.536-6.504C474.72,16,480,21.28,480,27.776V256z"/><rect x="448px" y="216px" width="16px" height="16px"/><rect x="448px" y="72px" width="16px" height="128px"/><rect x="256px" y="144px" width="16px" height="16px"/><rect x="192px" y="192px" width="16px" height="16px"/><rect x="120px" y="240px" width="16px" height="16px"/><rect x="160px" y="264px" width="16px" height="16px"/><rect x="264px" y="240px" width="16px" height="16px"/><rect x="216px" y="336px" width="16px" height="16px"/><rect x="176px" y="360px" width="16px" height="16px"/><rect x="272px" y="376px" width="16px" height="16px"/><rect x="208px" y="96px" width="16px" height="16px"/></g><g transform="matrix(0.1171872690320015 0 0 0.1171872690320015 202.99999874115235 4)" id="L1_10"><path d="M381.565,50.324C370.996,17.573,296.284,0,225.674,0C149.484,0,68.515,20.457,68.515,58.367l1.397,166.539    c0,78.068,60.17,162.295,128.519,200.637c129.386,79.269,125.759,77.054,125.944,77.147c34.312,19.242,77.591,7.713,97.794-25.855    C464.307,406.911,440.433,182.037,381.565,50.324z M122.241,29.468c56.94-19.344,149.916-19.354,206.864,0    c24.269,8.253,38.758,19.06,38.758,28.899c0,9.849-14.489,20.646-38.758,28.899c-56.892,19.356-149.911,19.37-206.864,0    c-24.269-8.253-38.758-19.05-38.758-28.899C83.483,48.528,97.972,37.72,122.241,29.468z M409.355,469.11    c-16.156,26.813-50.184,35.844-77.536,20.596l-79.213-48.528c6.924-3.006,5.477-13.361-2.096-14.28    c-9.849-1.207-19.309-2.644-27.921-4.111c-15.518-10.93-55.081-26.841-93.992-79.762c5.776-3.166,4.9-11.816-1.457-13.721    c-3.563-1.068-6.905-2.135-9.959-3.143C96.954,293.581,84.88,257.786,84.88,224.836l-0.419-47.659    c3.782,2.355,8.043,4.81,12.723,7.215c3.702,1.885,8.204,0.438,10.089-3.233c1.886-3.672,0.449-8.183-3.233-10.079    c-8.023-4.131-14.719-8.422-19.728-11.955l-0.649-74.593c59.393,46.39,253.293,41.499,292.533-8.302    c18.142,46.043,32.921,102.633,42.061,160.571c-10.268,6.007-25.796,13.681-46.472,20.078c-8.19,2.544-6.307,14.639,2.205,14.639    c3.82,0,28.437-8.926,46.632-18.85C428.228,306.861,437.471,422.421,409.355,469.11z"/><path d="M165.749,187.255c-11.586-0.1-23.461-1.936-35.276-5.458c-3.962-1.177-8.133,1.068-9.31,5.029    c-1.177,3.962,1.068,8.133,5.029,9.31c21.58,6.441,36.916,5.876,39.497,6.087c4.102,0,7.444-3.303,7.484-7.414    C173.203,190.678,169.88,187.295,165.749,187.255z"/><path d="M352.315,269.861c-0.788-4.051-4.71-6.706-8.771-5.918c-21.302,4.138-43.636,5.837-63.885,5.469    c-4.111-0.08-7.524,3.243-7.584,7.384c-0.059,4.131,3.244,7.524,7.374,7.584c21.639,0.378,44.878-1.453,66.949-5.738    C350.449,277.854,353.104,273.922,352.315,269.861z"/><path d="M357.415,427.169c-1.507-3.852-5.858-5.748-9.7-4.231c-19.27,7.565-47.079,7.792-67.857,6.626    c-4.101-0.22-7.654,2.924-7.883,7.055c-0.239,4.121,2.924,7.654,7.055,7.883c23.049,1.31,52.573,0.842,74.154-7.634    C357.036,435.352,358.922,431.011,357.415,427.169z"/><path d="M369.6,124.567c-2.285-3.443-6.935-4.371-10.378-2.076c-2.924,1.956-6.257,3.782-9.889,5.429    c-3.772,1.706-5.439,6.147-3.732,9.909c1.743,3.832,6.253,5.404,9.909,3.722c4.371-1.986,8.422-4.201,12.025-6.606    C370.966,132.65,371.894,128.01,369.6,124.567z"/><path d="M331.171,142.03c-0.778-4.061-4.7-6.726-8.761-5.947c-10.993,2.105-23.251,3.113-29.388,3.113    c-4.131,0-7.474,3.353-7.474,7.484s3.352,7.484,7.484,7.484c0.589,0,14.779-0.04,32.192-3.373    C329.285,150.014,331.949,146.092,331.171,142.03z"/><path d="M185.088,340.612c-8.901-0.499-18.84-1.866-29.558-4.071c-4.061-0.828-8.013,1.776-8.841,5.828s1.776,8.003,5.828,8.841    c15.326,3.145,28.649,4.361,32.152,4.361c3.952,0,7.245-3.083,7.474-7.075C192.373,344.374,189.21,340.841,185.088,340.612z"/></g><g transform="matrix(0.9854113459587097 0 0 0.9854113459587097 146.9227418601513 54.91831677420032)" id="L1_12"><path d="M57.756,26.999c2.034-2.607,1.153-5.051,0.458-5.904c-1.52-2.286-3.618-3.695-6.236-4.188   c-0.207-0.039-0.418-0.052-0.627-0.078c0.27-0.227,0.529-0.455,0.773-0.685c1.757-1.663,2.6-3.44,2.505-5.282   c-0.146-2.819-2.484-4.646-2.584-4.723l-0.047-0.034c-4.119-2.797-8.743,0.588-8.938,0.734l-0.176,0.168   c-0.072,0.088-0.141,0.191-0.212,0.282c-0.452-2.319-1.705-4.163-3.73-5.479c-0.475-0.38-3.506-2.62-7.043-0.823   c-0.438,0.223-0.834,0.511-1.208,0.827c-1.036-0.293-2.188-0.381-3.33,0.023c-1.552,0.55-2.568,1.871-2.718,3.535   c-0.16,1.769,0.732,3.482,2.271,4.365c1.409,0.808,3.097,2.304,4.665,5.047c-0.933-0.064-1.835,0.035-2.687,0.342   C23.811,16.951,3.715,46.393,0.15,55.954c-0.3,0.806-0.144,1.649,0.409,2.203c0.367,0.367,0.862,0.56,1.39,0.56   c0.267,0,0.542-0.049,0.813-0.15c9.629-3.59,39.191-23.586,40.986-28.585c0.245-0.683,0.361-1.399,0.37-2.136   c2.742,1.343,4.192,2.65,4.948,3.688c1.102,1.512,2.879,2.446,4.651,2.446c0.019,0,0.038,0,0.057,0   c1.477-0.017,2.788-0.695,3.598-1.86c1.204-1.734,0.777-3.606,0.135-4.83C57.592,27.192,57.68,27.097,57.756,26.999z    M56.596,22.267c0.114,0.149,1.049,1.483-0.3,3.347c-0.042-0.05-0.086-0.095-0.129-0.144c-0.073-0.084-0.146-0.165-0.22-0.247   c-0.189-0.211-0.379-0.414-0.572-0.609c-0.059-0.06-0.118-0.12-0.177-0.178c-3.13-3.066-6.698-4.031-9.936-4.031   c-1.148,0-2.255,0.121-3.286,0.31c0.111-0.05,0.226-0.1,0.339-0.149c0.157-0.069,0.314-0.138,0.475-0.206   c0.173-0.073,0.348-0.144,0.526-0.214c0.148-0.059,0.3-0.116,0.451-0.173c0.278-0.104,0.56-0.205,0.847-0.301   c0.179-0.06,0.358-0.12,0.539-0.175c0.175-0.054,0.353-0.105,0.53-0.155c0.197-0.055,0.395-0.106,0.594-0.155   c0.195-0.048,0.391-0.095,0.588-0.137c0.276-0.059,0.553-0.111,0.831-0.155c0.15-0.024,0.3-0.044,0.45-0.063   c1.174-0.152,2.349-0.167,3.466,0.042C53.708,19.269,55.323,20.358,56.596,22.267z M44.349,8.377   c0.582-0.397,3.809-2.431,6.496-0.637c0.179,0.147,1.696,1.45,1.787,3.226c0.063,1.23-0.57,2.484-1.883,3.727   c-0.769,0.728-1.705,1.448-2.783,2.141c-0.133,0.017-0.265,0.044-0.398,0.064c-0.28,0.042-0.559,0.084-0.836,0.138   c-0.192,0.038-0.38,0.083-0.57,0.126c-0.219,0.05-0.437,0.099-0.653,0.156c-0.201,0.052-0.399,0.108-0.597,0.166   c-0.199,0.058-0.396,0.117-0.592,0.179c-0.203,0.065-0.404,0.13-0.603,0.199c-0.179,0.062-0.354,0.126-0.529,0.191   c-0.206,0.076-0.412,0.151-0.613,0.231c-0.136,0.054-0.267,0.11-0.401,0.165c-0.869,0.359-1.678,0.736-2.403,1.106   c-0.01,0.005-0.022,0.011-0.032,0.016c0.613-1.136,1.257-2.483,1.805-3.936c0.034-0.091,0.071-0.179,0.104-0.271   c0.094-0.259,0.18-0.523,0.267-0.788c0.047-0.144,0.097-0.287,0.141-0.433c0.077-0.251,0.144-0.504,0.212-0.759   c0.043-0.162,0.087-0.323,0.126-0.486c0.06-0.251,0.112-0.503,0.162-0.756c0.033-0.168,0.065-0.335,0.093-0.504   c0.042-0.251,0.076-0.502,0.105-0.753c0.01-0.088,0.028-0.175,0.037-0.263C43.306,9.775,43.818,9.037,44.349,8.377z M32.843,2.752   c2.549-1.269,4.77,0.552,4.86,0.627c0.035,0.03,0.071,0.057,0.109,0.082c1.609,1.033,2.56,2.422,2.906,4.245   c0.148,0.778,0.17,1.594,0.109,2.424l-0.007,0.09c-0.13,1.575-0.579,3.198-1.149,4.707c0.041-0.959-0.005-1.947-0.167-2.941   c-0.005-0.031-0.012-0.061-0.017-0.091c-0.037-0.215-0.078-0.43-0.126-0.646c-0.029-0.132-0.063-0.264-0.097-0.395   c-0.028-0.108-0.056-0.217-0.088-0.325c-0.051-0.179-0.106-0.357-0.166-0.535c-0.016-0.048-0.034-0.097-0.051-0.145   C38.469,8.45,37.693,7.08,36.54,5.8c-0.032-0.035-0.064-0.071-0.096-0.106c-0.165-0.179-0.334-0.356-0.514-0.53   c-0.087-0.085-0.18-0.169-0.271-0.253c-0.139-0.128-0.275-0.257-0.423-0.382c-0.269-0.231-0.55-0.459-0.849-0.682   c-0.002-0.002-0.009-0.008-0.012-0.01c-0.08-0.07-0.256-0.215-0.507-0.403c-0.002-0.001-0.003-0.003-0.005-0.004   c-0.256-0.191-0.589-0.42-0.985-0.655C32.865,2.766,32.855,2.759,32.843,2.752z M27.91,8.002c-0.864-0.495-1.364-1.457-1.275-2.45   c0.038-0.415,0.249-1.424,1.394-1.829c0.323-0.115,0.656-0.164,0.989-0.164c0.53,0,1.06,0.128,1.559,0.313   c0,0,0.002,0.001,0.003,0.001c0.013,0.005,0.025,0.011,0.038,0.016c0.172,0.065,0.341,0.135,0.503,0.212   c0.08,0.038,0.155,0.078,0.233,0.117c0.13,0.067,0.259,0.135,0.379,0.204c0.047,0.027,0.094,0.054,0.139,0.081   c0.536,0.323,0.949,0.643,1.152,0.808c0.039,0.033,0.063,0.054,0.068,0.057c0.023,0.021,0.047,0.04,0.072,0.059   c0.436,0.323,0.837,0.664,1.21,1.018c0.106,0.101,0.193,0.206,0.293,0.308c0.255,0.26,0.503,0.524,0.726,0.799   c0.098,0.121,0.182,0.244,0.272,0.366c0.204,0.276,0.398,0.558,0.571,0.849c0.068,0.114,0.133,0.229,0.195,0.344   c0.188,0.347,0.359,0.703,0.504,1.07c0.023,0.057,0.049,0.114,0.071,0.171c0.703,1.876,0.863,4.005,0.467,6.378   c-0.275,1.644-0.779,3.137-1.257,4.291c-0.169-0.608-0.348-1.182-0.53-1.739c-0.03-0.093-0.062-0.182-0.093-0.274   c-0.17-0.507-0.346-0.994-0.525-1.46c-0.031-0.079-0.06-0.159-0.091-0.238C32.825,11.865,30.084,9.248,27.91,8.002z M41.866,29.305   c-0.539,1.499-4.297,4.767-9.365,8.555c-0.085-0.035-0.169-0.074-0.266-0.085c-1.633-0.179-3.748-1.023-4.792-2.505   c-0.318-0.452-0.944-0.559-1.394-0.241c-0.452,0.318-0.56,0.942-0.241,1.394c1.109,1.572,2.916,2.526,4.562,3.004   c-3.18,2.305-6.722,4.729-10.247,7.024c-0.149-0.131-0.326-0.232-0.538-0.256c-1.025-0.112-2.349-0.635-2.994-1.549   c-0.318-0.451-0.941-0.56-1.394-0.24c-0.451,0.318-0.559,0.942-0.24,1.394c0.734,1.041,1.888,1.696,2.982,2.059   c-6.474,4.124-12.592,7.61-15.875,8.834c-0.022,0.008-0.042,0.014-0.057,0.02c0.004-0.017,0.01-0.037,0.018-0.059   c0.807-2.164,2.306-5.08,4.199-8.346c0.036,0.036,0.059,0.08,0.101,0.111c0.718,0.527,1.481,0.985,2.267,1.36   c0.139,0.066,0.286,0.098,0.431,0.098c0.373,0,0.731-0.21,0.903-0.569c0.238-0.499,0.027-1.096-0.471-1.333   c-0.674-0.322-1.329-0.715-1.947-1.168c-0.097-0.071-0.205-0.114-0.314-0.145c2.341-3.913,5.152-8.212,7.998-12.302   c0.381,0.991,1.01,1.993,1.946,2.654c0.175,0.124,0.376,0.183,0.576,0.183c0.314,0,0.623-0.147,0.818-0.423   c0.318-0.451,0.211-1.075-0.24-1.394c-0.915-0.646-1.437-1.969-1.549-2.995c-0.006-0.057-0.035-0.104-0.05-0.158   c2.214-3.111,4.395-6.021,6.341-8.453c0.477,1.648,1.432,3.461,3.007,4.572c0.175,0.124,0.376,0.183,0.576,0.183   c0.314,0,0.624-0.147,0.818-0.423c0.318-0.452,0.211-1.075-0.24-1.394c-1.482-1.046-2.326-3.161-2.505-4.792   c-0.005-0.043-0.028-0.078-0.038-0.119c2.251-2.678,4.035-4.473,4.92-4.791c0.49-0.176,0.998-0.264,1.529-0.264   c0.502,0,1.026,0.079,1.576,0.237c0.44,0.994,0.842,2.074,1.208,3.224c0.024,0.075,0.048,0.149,0.071,0.225   c0.151,0.486,0.294,0.988,0.432,1.499c0.031,0.115,0.063,0.224,0.094,0.341c0.158,0.607,0.309,1.228,0.448,1.868   c0.009,0.042,0.03,0.079,0.044,0.12c0.014,0.039,0.024,0.08,0.043,0.117c0.005,0.011,0.009,0.022,0.015,0.033   c0.017,0.031,0.041,0.055,0.061,0.083c0.005,0.007,0.01,0.014,0.016,0.021c0.023,0.031,0.042,0.065,0.068,0.093   c0.006,0.006,0.01,0.013,0.016,0.019l0,0c0,0,0.001,0,0.001,0c0.003,0.003,0.006,0.005,0.009,0.007   c0.028,0.028,0.062,0.049,0.094,0.074c0.007,0.006,0.014,0.011,0.021,0.017c0.026,0.02,0.049,0.044,0.077,0.061   c0.011,0.007,0.023,0.011,0.035,0.017c0.023,0.013,0.048,0.022,0.072,0.033c0.023,0.01,0.045,0.016,0.068,0.025   c0.031,0.011,0.058,0.029,0.09,0.037c0.575,0.146,1.134,0.297,1.68,0.452c0.124,0.035,0.239,0.071,0.36,0.106   c0.428,0.124,0.85,0.25,1.259,0.379c0.105,0.033,0.204,0.066,0.307,0.1c0.426,0.138,0.844,0.278,1.247,0.421   c0.07,0.025,0.139,0.049,0.208,0.074c0.463,0.167,0.913,0.336,1.344,0.509c0.001,0,0.002,0.001,0.003,0.001   C42.199,27.784,42.133,28.562,41.866,29.305z M55.729,30.977c-0.566,0.815-1.388,0.995-1.978,1.001c-0.012,0-0.024,0-0.036,0   c-1.143,0-2.302-0.62-3.034-1.624c-1.384-1.898-3.854-3.585-7.34-5.049c-0.006-0.003-0.01-0.009-0.017-0.012   c-0.039-0.016-0.081-0.031-0.12-0.047c-0.303-0.126-0.62-0.249-0.939-0.371c-0.276-0.106-0.556-0.211-0.843-0.315   c-0.292-0.105-0.586-0.21-0.891-0.313c-0.418-0.142-0.851-0.279-1.29-0.415c-0.165-0.051-0.315-0.105-0.483-0.155   c0.081-0.032,0.173-0.063,0.257-0.095c0.03-0.008,0.061-0.001,0.09-0.011c3.12-1.138,8.458-2.239,13.087,0.973   c0.239,0.167,0.474,0.359,0.709,0.55c0.113,0.091,0.228,0.169,0.34,0.266c0.71,0.617,1.399,1.35,2.056,2.213l0.127,0.169   c0.004,0.005,0.01,0.007,0.013,0.012C55.777,28.219,56.649,29.653,55.729,30.977z"/><path d="M40.378,28.941c-2.046-0.78-3.945-2.182-5.642-4.167c-0.359-0.42-0.99-0.469-1.41-0.11c-0.42,0.359-0.469,0.99-0.11,1.41   c1.917,2.242,4.087,3.836,6.45,4.737c0.117,0.044,0.237,0.066,0.356,0.066c0.403,0,0.782-0.246,0.935-0.645   C41.153,29.716,40.894,29.138,40.378,28.941z"/></g><path d="m443.727,204.762c0-16.075-11.975-39.048-69.021-57.202-27.504-8.752-61.01-14.859-97.485-17.932 1.518-6.089 4.24-11.962 8.175-17.273 18.072-24.395 18.091-57.166 0.054-81.577-3.188-4.398-9.321-5.448-13.802-2.331-4.533,3.154-5.648,9.392-2.494,13.925 0.057,0.081 0.114,0.162 0.174,0.242 12.813,17.297 12.812,40.54-0.003,57.837-6.288,8.489-10.385,17.992-12.301,27.804-11.362-0.592-22.943-0.901-34.666-0.91 1.593-5.271 4.101-10.346 7.541-14.99 18.072-24.395 18.091-57.166 0.054-81.577-3.188-4.398-9.321-5.448-13.802-2.331-4.533,3.154-5.648,9.392-2.494,13.925 0.057,0.081 0.114,0.162 0.174,0.242 12.813,17.297 12.812,40.54-0.003,57.837-6.158,8.312-10.214,17.598-12.18,27.193-12.045,0.356-23.884,1.03-35.427,2.008 1.517-6.097 4.241-11.979 8.181-17.297 18.089-24.417 18.09-57.228 0.004-81.646-0.053-0.071-0.115-0.153-0.17-0.222-3.403-4.349-9.686-5.11-14.033-1.706-4.288,3.355-5.09,9.515-1.852,13.856 12.796,17.295 12.788,40.524-0.02,57.813-7.039,9.501-11.326,20.275-12.887,31.329-28.303,3.416-54.305,8.743-76.423,15.781-57.046,18.153-69.021,41.127-69.021,57.202 0,0.262 0.004,0.526 0.01,0.791 0.214,56.502 23.322,109.567 65.137,149.497 41.885,39.997 97.541,62.023 156.716,62.023s114.831-22.027 156.716-62.023c41.815-39.931 64.923-92.995 65.137-149.497 0.007-0.265 0.011-0.529 0.011-0.791zm-368.641-38.143c20.397-6.491 44.361-11.455 70.515-14.721 1.688,10.658 5.93,21.022 12.729,30.201 1.962,2.648 4.982,4.048 8.043,4.048 2.068,0 4.155-0.639 5.944-1.965 4.438-3.287 5.371-9.55 2.083-13.988-4.609-6.222-7.551-13.214-8.844-20.42 11.381-1.008 23.088-1.709 35.02-2.09 1.15,12.129 5.558,24.032 13.251,34.416 1.962,2.648 4.982,4.048 8.043,4.048 2.068,0 4.155-0.639 5.944-1.965 4.438-3.287 5.371-9.55 2.083-13.988-5.125-6.918-8.193-14.787-9.219-22.846 0.395-0.001 0.789-0.005 1.185-0.005 11.603,0 23.051,0.302 34.264,0.887 1.229,11.939 5.62,23.641 13.197,33.868 1.962,2.648 4.982,4.048 8.043,4.048 2.068,0 4.155-0.639 5.944-1.965 4.438-3.287 5.371-9.55 2.083-13.988-4.639-6.262-7.589-13.305-8.869-20.562 34.581,2.964 66.22,8.747 92.115,16.988 33.979,10.813 55.086,25.428 55.086,38.143 0,11.195-16.37,23.863-43.475,34.112-41.057-14.033-98.484-22.051-158.391-22.051-59.902,0-117.328,8.018-158.384,22.052-27.106-10.251-43.476-22.919-43.476-34.114 0-12.715 21.107-27.331 55.086-38.143zm269.346,82.892c-35.265,8.224-77.79,12.669-122.568,12.669-44.78,0-87.306-4.445-122.572-12.67 35.188-8.168 78.074-12.688 122.569-12.688 44.498,0.001 87.382,4.521 122.571,12.689zm-122.569,147.563c-98.231,0-180.29-67.195-198.217-155.868 10.383,7.178 25.004,14.275 45.375,20.758 40.971,13.038 95.251,20.217 152.843,20.217s111.872-7.18 152.843-20.217c20.369-6.482 34.989-13.578 45.372-20.756-17.929,88.672-99.986,155.866-198.216,155.866z" transform="matrix(0.1352182775735855 0 0 0.1352182775735855 250 247.9999989766195)" id="L1_13"/><g transform="matrix(0.11516973599415051 0.028090178816540832 -0.028090178816540832 0.11516973599415051 325.69283004060526 144.32439677336066)" id="L1_14"><circle cx="448" cy="213" r="7"/><circle cx="319" cy="294" r="7"/><path d="M500.859,283.184c-7.258-18.482-10.304-38.646-8.811-58.312c0.313-4.13-2.78-7.732-6.911-8.046     c-4.137-0.315-7.733,2.78-8.046,6.911c-1.663,21.904,1.727,44.356,9.805,64.929c11.446,29.157,13.198,60.609,5.068,90.955     c-10.36,38.665-35.369,70.617-70.42,89.973c-35.032,19.344-75.439,23.47-113.772,11.615c-13.646-4.22-26.428-10.37-38.046-18.187     c-0.102-0.072-0.204-0.144-0.309-0.211c-7.321-4.953-14.178-10.567-20.488-16.79c-0.195-0.221-0.402-0.428-0.618-0.621     c-9.435-9.418-17.641-20.187-24.34-32.109c-2.919-5.195-5.502-10.52-7.75-15.949c-0.062-0.173-0.132-0.344-0.207-0.514     c-11.753-28.684-14.114-60.202-6.513-90.463c7.809-31.088,25.083-58.097,49.954-78.106c0.872-0.702,1.713-1.429,2.567-2.146     c0.021-0.018,0.043-0.035,0.064-0.053c23.766-19.974,40.42-45.778,48.214-74.865l0.638-2.384     c6.164-23.002,20.941-42.186,41.609-54.016c20.666-11.829,44.693-14.855,67.661-8.52c21.374,5.898,39.614,19.627,51.36,38.659     c11.648,18.876,15.955,41.287,12.125,63.105c-0.717,4.08,2.01,7.968,6.09,8.684c4.076,0.722,7.968-2.011,8.684-6.09     c4.467-25.44-0.554-51.569-14.134-73.575c-13.741-22.266-35.098-38.332-60.135-45.24c-26.847-7.407-54.939-3.87-79.101,9.959     c-24.164,13.831-41.44,36.259-48.647,63.154l-0.638,2.384c-2.79,10.411-6.861,20.355-12.09,29.698     c-0.2-2.915-0.311-5.828-0.311-8.73v-1.272c0-57.416-46.161-104.471-102.901-104.891c-0.266-0.002-0.527-0.003-0.792-0.003     c-17.413,0-34.167,4.266-49.083,12.305c-1.244-1.615-2.509-3.195-3.789-4.722C95.863,32.775,50.559,16.357,26.313,9.857     C19.726,8.092,12.68,9.65,7.462,14.029c-5.217,4.378-7.978,11.047-7.383,17.84c2.191,25.008,10.494,72.473,41.478,109.397     c9.483,11.299,21.048,21.532,34.41,30.463c-0.716,26.793-9.724,52.754-26.203,75.284c-20.788,28.421-31.482,62.123-30.928,97.466     c0.646,41.145,16.954,80.135,45.919,109.783c28.974,29.656,67.571,46.853,108.682,48.421c2.114,0.081,4.222,0.121,6.324,0.121     c30.535,0,59.917-8.481,85.626-24.697c11.725,7.382,24.458,13.258,37.954,17.432c15.816,4.892,31.952,7.315,47.979,7.315     c26.803-0.001,53.299-6.779,77.476-20.13c38.652-21.345,66.231-56.582,77.656-99.221     C515.421,350.039,513.486,315.348,500.859,283.184z M53.047,131.625C24.708,97.852,17.059,53.809,15.022,30.561     c-0.171-1.95,0.588-3.788,2.082-5.042c1.494-1.253,3.437-1.68,5.325-1.174c22.542,6.043,64.588,21.224,92.927,54.997     c0.867,1.033,1.723,2.1,2.574,3.182c-3.939,2.936-7.699,6.167-11.248,9.69c-4.44,4.407-8.427,9.145-11.947,14.155L51.666,55.042     c-2.662-3.172-7.393-3.588-10.565-0.924c-3.173,2.662-3.587,7.393-0.924,10.565l46.451,55.359     c-5.2,10.554-8.557,21.959-9.908,33.82C67.724,147.089,59.78,139.649,53.047,131.625z M174.01,487.697     c-37.257-1.421-72.247-17.017-98.524-43.915c-26.274-26.894-41.065-62.243-41.651-99.538     c-0.503-32.051,9.192-62.61,28.038-88.374c19.08-26.086,29.166-56.375,29.166-87.596v-2.47c0-15.184,3.8-29.767,10.924-42.698     c0.127-0.201,0.245-0.406,0.352-0.617c3.994-7.112,8.983-13.723,14.935-19.632c16.9-16.774,39.316-25.952,63.15-25.739     c48.531,0.36,88.014,40.686,88.014,89.891v1.272c0,9.112,0.888,18.31,2.634,27.392c-3.131,3.864-6.49,7.58-10.076,11.129     c-3.143-12.533-4.737-25.444-4.737-38.522v-1.271c0-42.541-34.06-77.404-75.953-77.715l-0.555-0.002     c-42.186,0-76.508,34.321-76.508,76.509v2.47c0,33.822-10.897,66.6-31.515,94.785c-17.268,23.61-26.152,51.617-25.69,80.993     c0.47,29.982,10.726,58.209,29.659,81.632c1.482,1.833,3.65,2.785,5.838,2.785c1.655,0,3.322-0.545,4.71-1.667     c3.222-2.605,3.722-7.326,1.118-10.547c-16.806-20.791-25.91-45.84-26.327-72.437c-0.409-26.086,7.475-50.948,22.8-71.902     c22.51-30.773,34.407-66.612,34.407-103.641v-2.47c0-33.916,27.593-61.51,61.481-61.51l0.499,0.002     c33.655,0.25,61.037,28.384,61.037,62.716v1.271c0,16.908,2.436,33.565,7.23,49.596c-18.679,15.417-33.359,34.464-43.366,56.093     c-8.089-3.04-16.591-4.582-25.373-4.582c-39.978,0-72.504,32.525-72.504,72.504c0,39.98,32.525,72.505,72.504,72.505     c8.858,0,17.427-1.568,25.577-4.659c1.722,3.684,3.583,7.32,5.594,10.897c5.764,10.256,12.537,19.743,20.179,28.351     c-15.901,7.627-33.464,11.637-51.348,11.637c-1.543,0-3.119-0.03-4.682-0.089c-24.432-0.933-47.639-9.307-67.114-24.217     c-3.29-2.52-7.998-1.892-10.514,1.396c-2.518,3.289-1.893,7.997,1.396,10.515c21.951,16.806,48.114,26.244,75.662,27.295     c1.753,0.067,3.52,0.1,5.256,0.1c21.841,0,43.276-5.316,62.364-15.393c3.188,2.949,6.493,5.763,9.906,8.438     C228.376,482.191,201.641,488.746,174.01,487.697z M199.576,395.874c-6.332,2.344-12.982,3.529-19.851,3.529     c-31.708,0-57.505-25.797-57.505-57.506c0-31.708,25.797-57.505,57.505-57.505c6.818,0,13.423,1.167,19.715,3.477     c-1.715,4.845-3.217,9.795-4.485,14.844C187.149,333.787,188.856,366.053,199.576,395.874z"/><circle cx="265" cy="392" r="7"/><circle cx="273" cy="335" r="7"/><circle cx="450" cy="389" r="7"/><circle cx="252" cy="294" r="7"/><circle cx="443" cy="152" r="7"/><circle cx="307" cy="362" r="7"/><circle cx="295" cy="414" r="7"/><circle cx="390" cy="130" r="7"/><circle cx="465" cy="362" r="7"/><circle cx="409" cy="178" r="7"/><circle cx="455" cy="276" r="7"/></g><g transform="matrix(0.1171875 0 0 0.1171875 53 30.000000185966485)" id="L1_18"><path d="M454.976,43.056c-3.591-3.588-9.411-3.591-13.003,0l-95.329,95.326c-3.592,3.591-3.592,9.411-0.001,13.003    c1.796,1.795,4.148,2.692,6.502,2.692c2.352,0,4.706-0.897,6.502-2.692l95.329-95.326    C458.566,52.467,458.566,46.646,454.976,43.056z"/><path d="M480.9,68.571c-3.592-3.589-9.412-3.589-13.003,0l-95.328,95.328c-3.59,3.592-3.59,9.412-0.001,13.003    c1.796,1.795,4.15,2.692,6.502,2.692c2.352,0,4.706-0.897,6.502-2.692L480.9,81.573C484.491,77.982,484.491,72.161,480.9,68.571z"/><path d="M390.969,229.548L509.307,111.21c3.591-3.592,3.591-9.412,0-13.003c-3.592-3.588-9.412-3.591-13.003,0L377.968,216.545    c-14.579,14.578-36.871,18.403-55.47,9.521c-3.7-1.766-8.118-0.873-10.839,2.193l-40.209,45.303    c-0.016,0.017-0.034,0.032-0.05,0.05c-0.016,0.018-0.028,0.037-0.044,0.055L97.567,469.464c-0.044,0.05-0.088,0.101-0.131,0.152    c-0.573,0.673-1.114,1.264-1.662,1.813c-11.475,11.474-30.145,11.473-41.615,0c-5.558-5.557-8.619-12.948-8.619-20.808    s3.061-15.25,8.629-20.818c0.534-0.537,1.124-1.076,1.803-1.654c0.052-0.043,0.102-0.087,0.152-0.131l108.648-96.434    c3.798-3.371,4.143-9.182,0.773-12.979c-3.371-3.799-9.183-4.146-12.979-0.773L43.99,414.202    c-1.038,0.885-1.967,1.742-2.833,2.609c-9.031,9.031-14.005,21.038-14.005,33.81c0,12.771,4.973,24.779,14.004,33.81    c9.323,9.321,21.566,13.982,33.812,13.981c12.241,0,24.487-4.659,33.803-13.976c0.883-0.881,1.738-1.811,2.616-2.839    l132.432-149.206l132.434,149.208c0.877,1.029,1.732,1.959,2.609,2.834c9.321,9.321,21.565,13.981,33.809,13.981    c12.245,0,24.49-4.661,33.812-13.982c18.64-18.643,18.64-48.975,0.005-67.613c-0.88-0.883-1.811-1.738-2.838-2.615    l-152.391-135.26l29.815-33.592C345.231,253.911,372.565,247.949,390.969,229.548z M431.514,428.019    c0.05,0.044,0.101,0.088,0.152,0.131c0.673,0.573,1.264,1.114,1.813,1.662c11.473,11.474,11.473,30.143,0.001,41.615    c-11.475,11.473-30.144,11.473-41.622-0.005c-0.543-0.543-1.086-1.135-1.659-1.808c-0.043-0.051-0.087-0.102-0.131-0.152    L256.111,318.54l22.939-25.845L431.514,428.019z"/><path d="M427.379,16.278c-3.592-3.589-9.412-3.589-13.003,0L296.04,134.617c-18.406,18.404-24.366,45.735-15.807,69.897    l-36.415,32.322l-34.998-31.064c18.099-35.612,11.492-78.851-17.222-107.566c-28.518-28.518-61.55-48.587-93.011-56.508    c-32.843-8.267-61.001-2.748-79.295,15.545s-23.814,46.455-15.545,79.296c7.922,31.459,27.99,64.491,56.51,93.008    c28.714,28.716,71.952,35.323,107.566,17.223c0,0,34.225,38.558,34.659,39.048c1.817,2.047,4.342,3.09,6.88,3.09    c2.171,0,4.349-0.764,6.1-2.318l81.866-72.664c3.065-2.721,3.958-7.141,2.193-10.839c-8.884-18.601-5.058-40.891,9.521-55.468    L427.379,29.281C430.97,25.689,430.97,19.869,427.379,16.278z M210.131,266.737l-33.468-37.706    c-2.964-3.339-7.902-4.069-11.702-1.722c-29.478,18.177-67.188,13.754-91.704-10.763c-26.204-26.203-44.557-56.21-51.68-84.497    c-6.625-26.317-2.819-48.267,10.718-61.803C45.83,56.708,67.78,52.904,94.096,59.53c28.287,7.122,58.296,25.474,84.498,51.678    c24.516,24.515,28.94,62.225,10.762,91.703c-2.344,3.801-1.617,8.737,1.722,11.702l38.888,34.516L210.131,266.737z"/></g></defs><g fi:class="KUsePattern"><pattern id="pattern_L1_1" width="350" height="350" patternUnits="userSpaceOnUse"><use xlink:href="#L1_1" x="-350" y="-350"/><use xlink:href="#L1_1" x="0" y="-350"/><use xlink:href="#L1_1" x="350" y="-350"/><use xlink:href="#L1_1" x="-350" y="0"/><use xlink:href="#L1_1" x="0" y="0"/><use xlink:href="#L1_1" x="350" y="0"/><use xlink:href="#L1_1" x="-350" y="350"/><use xlink:href="#L1_1" x="0" y="350"/><use xlink:href="#L1_1" x="350" y="350"/></pattern><rect x="0" y="0" width="100%" height="100%" fill="url(#pattern_L1_1)"/></g><g fi:class="KUsePattern"><pattern id="pattern_L1_2" width="350" height="350" patternUnits="userSpaceOnUse"><use xlink:href="#L1_2" x="-350" y="-350"/><use xlink:href="#L1_2" x="0" y="-350"/><use xlink:href="#L1_2" x="350" y="-350"/><use xlink:href="#L1_2" x="-350" y="0"/><use xlink:href="#L1_2" x="0" y="0"/><use xlink:href="#L1_2" x="350" y="0"/><use xlink:href="#L1_2" x="-350" y="350"/><use xlink:href="#L1_2" x="0" y="350"/><use xlink:href="#L1_2" x="350" y="350"/></pattern><rect x="0" y="0" width="100%" height="100%" fill="url(#pattern_L1_2)"/></g><g fi:class="KUsePattern"><pattern id="pattern_L1_5" width="350" height="350" patternUnits="userSpaceOnUse"><use xlink:href="#L1_5" x="-350" y="-350"/><use xlink:href="#L1_5" x="0" y="-350"/><use xlink:href="#L1_5" x="350" y="-350"/><use xlink:href="#L1_5" x="-350" y="0"/><use xlink:href="#L1_5" x="0" y="0"/><use xlink:href="#L1_5" x="350" y="0"/><use xlink:href="#L1_5" x="-350" y="350"/><use xlink:href="#L1_5" x="0" y="350"/><use xlink:href="#L1_5" x="350" y="350"/></pattern><rect x="0" y="0" width="100%" height="100%" fill="url(#pattern_L1_5)"/></g><g fi:class="KUsePattern"><pattern id="pattern_L1_6" width="350" height="350" patternUnits="userSpaceOnUse"><use xlink:href="#L1_6" x="-350" y="-350"/><use xlink:href="#L1_6" x="0" y="-350"/><use xlink:href="#L1_6" x="350" y="-350"/><use xlink:href="#L1_6" x="-350" y="0"/><use xlink:href="#L1_6" x="0" y="0"/><use xlink:href="#L1_6" x="350" y="0"/><use xlink:href="#L1_6" x="-350" y="350"/><use xlink:href="#L1_6" x="0" y="350"/><use xlink:href="#L1_6" x="350" y="350"/></pattern><rect x="0" y="0" width="100%" height="100%" fill="url(#pattern_L1_6)"/></g><g fi:class="KUsePattern"><pattern id="pattern_L1_7" width="350" height="350" patternUnits="userSpaceOnUse"><use xlink:href="#L1_7" x="-350" y="-350"/><use xlink:href="#L1_7" x="0" y="-350"/><use xlink:href="#L1_7" x="350" y="-350"/><use xlink:href="#L1_7" x="-350" y="0"/><use xlink:href="#L1_7" x="0" y="0"/><use xlink:href="#L1_7" x="350" y="0"/><use xlink:href="#L1_7" x="-350" y="350"/><use xlink:href="#L1_7" x="0" y="350"/><use xlink:href="#L1_7" x="350" y="350"/></pattern><rect x="0" y="0" width="100%" height="100%" fill="url(#pattern_L1_7)"/></g><g fi:class="KUsePattern"><pattern id="pattern_L1_8" width="350" height="350" patternUnits="userSpaceOnUse"><use xlink:href="#L1_8" x="-350" y="-350"/><use xlink:href="#L1_8" x="0" y="-350"/><use xlink:href="#L1_8" x="350" y="-350"/><use xlink:href="#L1_8" x="-350" y="0"/><use xlink:href="#L1_8" x="0" y="0"/><use xlink:href="#L1_8" x="350" y="0"/><use xlink:href="#L1_8" x="-350" y="350"/><use xlink:href="#L1_8" x="0" y="350"/><use xlink:href="#L1_8" x="350" y="350"/></pattern><rect x="0" y="0" width="100%" height="100%" fill="url(#pattern_L1_8)"/></g><g fi:class="KUsePattern"><pattern id="pattern_L1_9" width="350" height="350" patternUnits="userSpaceOnUse"><use xlink:href="#L1_9" x="-350" y="-350"/><use xlink:href="#L1_9" x="0" y="-350"/><use xlink:href="#L1_9" x="350" y="-350"/><use xlink:href="#L1_9" x="-350" y="0"/><use xlink:href="#L1_9" x="0" y="0"/><use xlink:href="#L1_9" x="350" y="0"/><use xlink:href="#L1_9" x="-350" y="350"/><use xlink:href="#L1_9" x="0" y="350"/><use xlink:href="#L1_9" x="350" y="350"/></pattern><rect x="0" y="0" width="100%" height="100%" fill="url(#pattern_L1_9)"/></g><g fi:class="KUsePattern"><pattern id="pattern_L1_10" width="350" height="350" patternUnits="userSpaceOnUse"><use xlink:href="#L1_10" x="-350" y="-350"/><use xlink:href="#L1_10" x="0" y="-350"/><use xlink:href="#L1_10" x="350" y="-350"/><use xlink:href="#L1_10" x="-350" y="0"/><use xlink:href="#L1_10" x="0" y="0"/><use xlink:href="#L1_10" x="350" y="0"/><use xlink:href="#L1_10" x="-350" y="350"/><use xlink:href="#L1_10" x="0" y="350"/><use xlink:href="#L1_10" x="350" y="350"/></pattern><rect x="0" y="0" width="100%" height="100%" fill="url(#pattern_L1_10)"/></g><g fi:class="KUsePattern"><pattern id="pattern_L1_12" width="350" height="350" patternUnits="userSpaceOnUse"><use xlink:href="#L1_12" x="-350" y="-350"/><use xlink:href="#L1_12" x="0" y="-350"/><use xlink:href="#L1_12" x="350" y="-350"/><use xlink:href="#L1_12" x="-350" y="0"/><use xlink:href="#L1_12" x="0" y="0"/><use xlink:href="#L1_12" x="350" y="0"/><use xlink:href="#L1_12" x="-350" y="350"/><use xlink:href="#L1_12" x="0" y="350"/><use xlink:href="#L1_12" x="350" y="350"/></pattern><rect x="0" y="0" width="100%" height="100%" fill="url(#pattern_L1_12)"/></g><g fi:class="KUsePattern"><pattern id="pattern_L1_13" width="350" height="350" patternUnits="userSpaceOnUse"><use xlink:href="#L1_13" x="-350" y="-350"/><use xlink:href="#L1_13" x="0" y="-350"/><use xlink:href="#L1_13" x="350" y="-350"/><use xlink:href="#L1_13" x="-350" y="0"/><use xlink:href="#L1_13" x="0" y="0"/><use xlink:href="#L1_13" x="350" y="0"/><use xlink:href="#L1_13" x="-350" y="350"/><use xlink:href="#L1_13" x="0" y="350"/><use xlink:href="#L1_13" x="350" y="350"/></pattern><rect x="0" y="0" width="100%" height="100%" fill="url(#pattern_L1_13)"/></g><g fi:class="KUsePattern"><pattern id="pattern_L1_14" width="350" height="350" patternUnits="userSpaceOnUse"><use xlink:href="#L1_14" x="-350" y="-350"/><use xlink:href="#L1_14" x="0" y="-350"/><use xlink:href="#L1_14" x="350" y="-350"/><use xlink:href="#L1_14" x="-350" y="0"/><use xlink:href="#L1_14" x="0" y="0"/><use xlink:href="#L1_14" x="350" y="0"/><use xlink:href="#L1_14" x="-350" y="350"/><use xlink:href="#L1_14" x="0" y="350"/><use xlink:href="#L1_14" x="350" y="350"/></pattern><rect x="0" y="0" width="100%" height="100%" fill="url(#pattern_L1_14)"/></g><g fi:class="KUsePattern"><pattern id="pattern_L1_18" width="350" height="350" patternUnits="userSpaceOnUse"><use xlink:href="#L1_18" x="-350" y="-350"/><use xlink:href="#L1_18" x="0" y="-350"/><use xlink:href="#L1_18" x="350" y="-350"/><use xlink:href="#L1_18" x="-350" y="0"/><use xlink:href="#L1_18" x="0" y="0"/><use xlink:href="#L1_18" x="350" y="0"/><use xlink:href="#L1_18" x="-350" y="350"/><use xlink:href="#L1_18" x="0" y="350"/><use xlink:href="#L1_18" x="350" y="350"/></pattern><rect x="0" y="0" width="100%" height="100%" fill="url(#pattern_L1_18)"/></g></svg>